<?xml version="1.0" standalone="no"?>
<!DOCTYPE svg PUBLIC "-//W3C//DTD SVG 20010904//EN"
 "http://www.w3.org/TR/2001/REC-SVG-20010904/DTD/svg10.dtd">
<svg version="1.0" xmlns="http://www.w3.org/2000/svg"
 width="462.000000pt" height="462.000000pt" viewBox="0 0 462.000000 462.000000"
 preserveAspectRatio="xMidYMid meet">
<metadata>
Created by potrace 1.11, written by Peter Selinger 2001-2013
</metadata>
<g transform="translate(0.000000,462.000000) scale(0.100000,-0.100000)"
fill="#000000" stroke="none">
<path d="M520 2939 c-19 -5 -46 -11 -60 -13 -14 -3 -63 -24 -108 -47 -162 -79
-297 -251 -337 -428 -17 -79 -13 -232 9 -314 52 -194 216 -364 422 -438 87
-32 256 -36 353 -9 277 77 465 309 477 588 5 118 -14 213 -62 310 -64 130
-183 249 -303 303 -111 50 -290 72 -391 48z"/>
<path d="M2790 2765 c0 -30 3 -35 24 -35 59 0 56 20 56 -371 l0 -359 45 0 c29
0 45 5 46 13 1 6 2 17 4 22 1 6 3 14 3 19 1 5 12 0 25 -11 77 -71 203 -69 279
4 46 44 70 116 71 213 2 184 -74 296 -204 301 -62 3 -104 -9 -130 -37 -12 -13
-26 -24 -29 -24 -4 0 -8 60 -8 133 0 72 -1 140 -1 150 -1 15 -12 17 -91 17
l-90 0 0 -35z m395 -318 c39 -39 56 -94 57 -181 2 -121 -45 -189 -130 -192
-56 -1 -93 15 -120 53 -17 24 -19 45 -19 153 l0 125 37 38 c34 33 43 37 90 37
46 0 56 -4 85 -33z"/>
<path d="M4110 2622 l0 -69 -44 2 -44 1 0 -38 -1 -38 45 0 44 0 1 -187 c0
-213 7 -246 59 -281 29 -20 44 -23 93 -20 68 5 81 15 72 56 -6 28 -9 30 -43
26 -28 -3 -43 1 -59 16 -21 19 -22 28 -22 205 l1 185 53 0 53 0 -2 37 -2 38
-49 0 -50 1 -2 39 c-1 22 -2 52 -2 68 -1 26 -3 27 -51 27 l-50 0 0 -68z"/>
<path d="M2103 2554 c-21 -7 -50 -27 -65 -44 l-28 -30 -6 37 -6 38 -84 0 c-46
1 -84 -2 -85 -5 0 -3 -2 -17 -4 -32 -3 -25 0 -28 38 -35 l42 -9 0 -199 0 -199
-35 -4 c-43 -5 -43 -5 -45 -42 l-1 -30 133 0 c111 0 133 2 134 15 1 8 2 23 3
32 0 11 -7 19 -19 21 -71 10 -65 -5 -65 175 l0 163 30 29 c25 24 40 29 83 31
l52 1 7 43 c4 24 5 46 3 49 -10 10 -45 7 -82 -5z"/>
<path d="M2450 2560 c-116 -21 -198 -136 -198 -278 0 -177 90 -285 238 -286
71 -1 93 3 130 23 84 46 129 146 125 278 -6 178 -134 292 -295 263z m127 -103
c59 -40 84 -151 59 -269 -5 -20 -23 -54 -41 -75 -31 -36 -35 -38 -95 -38 -58
0 -63 2 -95 36 -58 64 -70 196 -25 293 37 83 120 105 197 53z"/>
<path d="M3642 2558 c-117 -20 -192 -126 -193 -270 -1 -108 19 -168 75 -231
64 -70 214 -88 295 -34 89 59 127 150 119 285 -11 178 -131 280 -296 250z m96
-77 c25 -2 74 -61 88 -108 33 -108 -1 -254 -67 -288 -57 -30 -139 -12 -171 37
-57 87 -52 250 10 319 26 29 78 49 112 43 8 -1 21 -3 28 -3z"/>
</g>
</svg>
